<?xml version="1.0" standalone="no"?>
<!DOCTYPE svg PUBLIC "-//W3C//DTD SVG 20010904//EN"
 "http://www.w3.org/TR/2001/REC-SVG-20010904/DTD/svg10.dtd">
<svg version="1.0" xmlns="http://www.w3.org/2000/svg"
 width="967.000000pt" height="900.000000pt" viewBox="0 0 967.000000 900.000000"
 preserveAspectRatio="xMidYMid meet">

<g transform="translate(0.000000,900.000000) scale(0.100000,-0.100000)"
fill="#000000" stroke="none">
<path d="M2970 8833 c-50 -18 -68 -84 -32 -116 19 -17 68 -22 88 -9 21 13 34
52 28 77 -5 20 -51 58 -66 54 -2 0 -10 -3 -18 -6z"/>
<path d="M2569 8747 c-108 -54 -201 -127 -273 -216 -55 -66 -120 -180 -144
-248 -9 -26 -17 -33 -49 -38 -184 -30 -314 -85 -438 -186 -109 -88 -211 -229
-250 -342 -19 -56 -20 -56 -64 -62 -433 -59 -742 -411 -741 -844 0 -140 31
-259 103 -396 32 -62 65 -103 142 -180 102 -102 169 -149 273 -191 128 -51
165 -57 392 -59 188 -2 222 -4 270 -22 149 -55 199 -100 429 -393 l168 -214
-29 -50 c-17 -28 -61 -113 -99 -189 -202 -403 -321 -807 -375 -1272 -24 -207
-24 -607 0 -805 35 -290 98 -576 176 -805 22 -63 40 -117 40 -120 0 -19 -122
59 -180 116 -64 62 -104 111 -167 207 -30 45 -66 90 -79 99 -35 22 -121 22
-160 -1 -46 -27 -62 -68 -80 -206 -18 -138 -15 -439 6 -560 29 -168 53 -268
71 -302 5 -10 9 -23 9 -29 0 -6 14 -40 30 -76 17 -35 30 -69 30 -74 0 -5 5 -9
10 -9 6 0 10 -5 10 -12 0 -10 57 -107 70 -118 3 -3 17 -21 30 -40 14 -19 32
-44 40 -54 23 -29 140 -146 146 -146 3 0 17 -11 32 -25 58 -55 304 -192 375
-210 15 -4 27 -11 27 -16 0 -5 7 -9 15 -9 8 0 34 -6 57 -14 46 -14 234 -57
333 -75 119 -22 440 -33 645 -21 107 6 222 15 255 20 33 5 114 16 180 24 66 9
154 23 195 31 41 9 98 20 125 25 28 5 66 14 85 19 19 6 87 24 150 42 146 39
203 59 370 126 330 135 547 268 748 460 31 29 61 53 67 53 5 0 39 -28 75 -63
36 -34 79 -71 94 -82 29 -20 90 -70 114 -92 7 -7 18 -13 25 -13 6 0 20 -9 31
-19 12 -11 66 -42 121 -70 55 -28 123 -63 150 -79 28 -15 66 -34 85 -41 19 -7
53 -21 75 -31 87 -39 116 -50 133 -50 10 0 22 -4 27 -9 13 -12 210 -81 260
-92 71 -14 139 -30 190 -45 92 -26 312 -66 465 -84 47 -6 110 -15 140 -20 70
-13 630 -13 735 0 92 11 159 22 265 45 41 9 89 19 105 22 17 3 35 9 40 13 6 4
25 11 43 15 18 4 45 13 60 21 15 8 33 14 40 14 6 0 12 5 12 10 0 6 7 10 15 10
28 0 261 132 321 182 58 48 129 114 142 130 7 9 18 23 25 30 7 7 28 33 47 58
19 25 38 47 42 48 5 2 8 10 8 17 0 8 6 20 13 27 6 7 21 29 31 48 11 19 22 37
25 40 11 9 41 80 41 95 0 8 5 15 10 15 6 0 10 7 10 16 0 9 6 30 14 47 13 29
34 108 56 212 26 119 42 318 37 465 -10 319 -34 397 -128 420 -49 12 -129 -1
-129 -20 0 -6 -7 -10 -15 -10 -8 0 -15 -4 -15 -8 0 -8 -148 -160 -211 -217
-19 -17 -51 -41 -71 -54 -21 -12 -38 -27 -38 -32 0 -5 -6 -9 -14 -9 -8 0 -16
-3 -18 -7 -5 -13 -195 -103 -216 -103 -6 0 12 66 39 148 137 406 193 759 193
1202 1 277 -8 392 -49 637 -257 1532 -1453 2744 -2957 2997 -225 38 -400 49
-676 43 -323 -7 -546 -40 -847 -122 -121 -33 -356 -115 -408 -142 -15 -7 -31
-11 -36 -8 -22 13 -291 366 -314 410 -67 133 -77 277 -31 430 44 145 54 204
54 315 0 236 -76 416 -245 586 -144 145 -253 198 -297 144 -35 -44 -19 -89 45
-121 161 -82 301 -268 343 -456 25 -114 15 -269 -25 -398 -66 -209 -57 -384
31 -559 16 -32 28 -60 26 -61 -29 -28 -706 -555 -713 -554 -5 0 -102 117 -214
260 -112 143 -214 267 -227 275 -49 33 -120 -27 -96 -81 6 -12 103 -140 217
-284 173 -220 205 -265 194 -276 -8 -7 -169 -135 -358 -284 l-344 -270 -51 44
c-61 54 -155 105 -251 136 -63 20 -91 23 -285 24 -208 1 -218 2 -295 29 -244
84 -403 258 -466 506 -42 164 -11 368 78 519 47 79 138 174 217 226 69 45 187
93 250 101 l44 6 4 -133 c6 -164 35 -268 79 -283 39 -13 75 0 88 31 9 23 8 43
-9 107 -24 96 -26 242 -5 335 106 450 620 676 1022 450 29 -16 64 -29 78 -29
58 0 86 77 42 118 -50 47 -274 132 -347 132 -28 0 -21 22 30 111 75 127 168
211 314 284 95 47 114 76 79 123 -31 41 -65 39 -164 -11z m1268 -1838 c49 -61
89 -116 91 -123 1 -6 -19 -22 -45 -35 -177 -84 -462 -267 -638 -408 -238 -191
-500 -469 -689 -731 -66 -90 -92 -120 -101 -112 -29 24 -247 312 -241 318 21
20 1522 1201 1528 1201 4 1 47 -49 95 -110z m2013 37 c823 -100 1590 -501
2139 -1120 485 -547 772 -1176 878 -1926 25 -180 25 -740 0 -920 -39 -280
-102 -533 -193 -782 l-47 -128 -53 0 c-29 0 -55 4 -58 9 -3 5 -20 11 -38 14
-59 10 -128 31 -128 39 0 5 -8 8 -19 8 -26 0 -251 125 -271 151 -3 3 -23 17
-45 31 -22 14 -53 37 -70 52 -16 14 -33 26 -37 26 -4 0 -13 6 -20 13 -7 7 -43
35 -79 63 l-66 49 19 55 c71 208 109 435 115 692 8 293 -17 500 -92 757 -236
811 -886 1455 -1695 1677 -491 135 -981 123 -1449 -35 -191 -65 -286 -107
-442 -196 -149 -86 -199 -121 -335 -232 -269 -218 -485 -490 -640 -803 -118
-238 -187 -452 -213 -657 -6 -46 -16 -120 -22 -165 -20 -141 -15 -461 10 -628
25 -173 62 -330 101 -439 l29 -79 -72 -49 c-40 -26 -73 -51 -75 -55 -2 -5 -10
-8 -17 -8 -8 0 -20 -6 -27 -13 -7 -6 -30 -21 -50 -32 -21 -11 -38 -23 -38 -27
0 -5 -6 -8 -14 -8 -8 0 -21 -6 -28 -13 -7 -6 -31 -21 -53 -32 -22 -11 -41 -23
-43 -27 -2 -5 -8 -8 -13 -8 -6 0 -37 -14 -71 -30 -33 -17 -69 -30 -79 -30 -10
0 -19 -4 -19 -8 0 -10 -82 -30 -160 -40 -30 -4 -61 -11 -68 -15 -16 -11 -45
55 -105 238 -76 233 -118 421 -154 685 -23 170 -26 673 -5 845 120 977 595
1828 1350 2414 518 403 1133 642 1802 700 142 13 507 5 660 -13z m-110 -1341
c652 -99 1202 -449 1570 -998 180 -268 304 -595 356 -937 24 -156 24 -472 1
-626 -17 -110 -79 -379 -90 -390 -3 -3 -12 -1 -19 5 -66 55 -107 85 -125 94
-13 6 -23 14 -23 19 0 4 -7 8 -15 8 -8 0 -15 4 -15 8 0 4 -18 19 -40 32 -22
14 -40 28 -40 33 0 4 -5 7 -10 7 -6 0 -46 22 -90 50 -44 27 -97 57 -118 67
-83 38 -81 34 -65 121 22 114 21 392 -1 517 -44 246 -122 443 -256 644 -109
162 -152 194 -208 155 -59 -41 -49 -80 53 -219 107 -146 190 -332 236 -534 26
-109 37 -391 20 -501 -7 -41 -13 -75 -15 -77 -1 -1 -31 6 -67 16 -130 39 -190
51 -251 51 -35 1 -83 5 -106 9 -24 5 -71 5 -105 1 -34 -4 -63 -7 -64 -6 -1 1
-5 58 -9 127 l-7 126 35 21 c146 90 219 295 191 535 -11 95 -69 312 -103 390
-24 54 -91 131 -142 163 -21 14 -66 32 -101 40 -161 42 -334 -27 -414 -163
-30 -51 -97 -264 -114 -359 -18 -102 -7 -336 18 -401 28 -72 84 -145 145 -189
l51 -38 -8 -190 c-6 -175 -9 -192 -27 -208 -12 -10 -27 -18 -35 -18 -7 0 -13
-4 -13 -10 0 -5 -5 -10 -11 -10 -11 0 -72 -45 -119 -87 -14 -13 -32 -23 -40
-23 -14 0 -57 24 -70 40 -14 16 -89 70 -98 70 -6 0 -12 3 -14 8 -3 7 -42 30
-109 63 -48 24 -117 50 -152 56 -15 3 -30 9 -33 14 -3 5 -14 9 -24 9 -26 0
-28 12 -36 199 l-7 163 111 112 c60 61 115 121 121 133 7 15 11 142 11 398 0
310 -3 381 -15 404 -24 48 -81 56 -120 16 l-25 -24 0 -363 0 -363 -122 -123
-123 -122 2 -83 c1 -45 5 -135 8 -201 l7 -118 -54 7 c-29 4 -55 9 -58 10 -3 2
-2 83 3 181 5 125 4 187 -4 205 -6 15 -60 75 -120 133 l-109 106 0 356 c0 363
-2 383 -39 411 -28 21 -75 15 -102 -13 l-24 -26 -3 -366 c-2 -202 0 -381 3
-399 4 -23 37 -64 124 -152 116 -116 119 -121 115 -158 -2 -21 -6 -95 -10
-165 l-6 -128 -37 0 c-48 0 -212 -36 -291 -65 -19 -7 -53 -18 -75 -25 -45 -14
-94 -34 -143 -57 -17 -9 -34 -14 -36 -12 -3 2 -13 42 -23 89 -28 133 -26 430
5 569 42 186 117 365 216 516 55 82 60 123 20 154 -27 21 -59 26 -89 14 -10
-3 -43 -45 -74 -93 -171 -260 -262 -566 -262 -882 0 -159 3 -182 32 -336 23
-115 24 -112 -51 -150 -48 -24 -82 -44 -90 -52 -6 -6 -35 -24 -83 -50 -21 -11
-44 -25 -50 -31 -24 -20 -257 -169 -265 -169 -10 0 -62 155 -86 255 -48 200
-69 450 -55 669 19 304 91 579 224 851 115 236 242 416 428 603 185 188 354
312 584 429 272 139 498 204 863 247 73 9 399 -4 500 -19z m343 -1206 c43 -12
101 -59 122 -99 30 -58 87 -277 95 -364 11 -109 -2 -212 -33 -274 -21 -44 -90
-112 -112 -112 -6 0 -26 -13 -45 -29 l-35 -29 3 -123 c1 -68 5 -150 8 -181 6
-57 6 -57 -23 -63 -15 -3 -36 -10 -45 -16 -10 -5 -27 -9 -39 -9 -22 0 -22 0
-14 184 4 102 4 194 0 205 -3 12 -27 33 -53 48 -130 75 -161 128 -169 286 -7
119 5 199 49 342 38 126 59 168 100 198 60 45 120 56 191 36z"/>
<path d="M5240 4969 c-163 -17 -390 -78 -431 -115 -27 -24 -25 -87 3 -114 29
-27 55 -25 171 10 123 37 194 50 331 60 118 9 279 -1 393 -25 77 -15 107 -11
133 20 21 25 18 82 -5 105 -50 49 -380 82 -595 59z"/>
<path d="M4625 4545 l-25 -24 0 -356 0 -356 25 -24 c15 -16 36 -25 55 -25 19
0 40 9 55 25 l25 24 0 356 0 356 -25 24 c-15 16 -36 25 -55 25 -19 0 -40 -9
-55 -25z"/>
<path d="M4871 4551 c-11 -11 -23 -35 -26 -53 -3 -18 -5 -180 -3 -360 l3 -326
24 -26 c30 -32 69 -34 105 -5 l26 20 0 364 0 364 -26 20 c-33 26 -78 27 -103
2z"/>
<path d="M3057 7603 c-65 -17 -88 -304 -38 -475 26 -90 70 -169 104 -188 24
-13 30 -13 54 0 45 25 51 61 21 117 -58 107 -79 248 -58 392 15 104 10 133
-25 149 -27 12 -29 13 -58 5z"/>
<path d="M1834 6640 c-11 -5 -27 -22 -34 -40 -12 -28 -11 -34 7 -58 18 -24 30
-28 113 -39 169 -21 278 -63 374 -142 70 -59 125 -53 142 16 18 70 -157 189
-349 237 -103 26 -221 38 -253 26z"/>
</g>
</svg>
